# xmcd
#
# Track frame offsets:
#	150
#	12852
#	23327
#	35252
#	47457
#	64082
#	77892
#	90227
#	103582
#	114910
#	134320
#	150167
#
# Disc length: 2174 seconds
#
# Revision: 2
# Processed by: cddbd v1.4PL0 Copyright (c) Steve Scherf et al.
# Submitted via: EasyCDDAExtractor 4.5.0.2
#
DISCID=76087c0c
DTITLE=J.D. Crowe and The New South - Flashback
DYEAR=1994
DGENRE=Bluegrass
TTITLE0=Waiting For You
TTITLE1=I'll Just Pretend
TTITLE2=Ever Changing Woman
TTITLE3=Nashville Skyline Rag
TTITLE4=Bouquet In Heaven
TTITLE5=Long Journey Home
TTITLE6=If I Could Go Back Home Again
TTITLE7='Til My Dying Day
TTITLE8=Still Loves This Man
TTITLE9=Mr. Engineer
TTITLE10=Sledd Ridin'
TTITLE11=When The Angels Carry Me Home
EXTD=
EXTT0=
EXTT1=
EXTT2=
EXTT3=
EXTT4=
EXTT5=
EXTT6=
EXTT7=
EXTT8=
EXTT9=
EXTT10=
EXTT11=
PLAYORDER=
